<svg xmlns="http://www.w3.org/2000/svg" viewBox="0 0 512 512" fill="none">
  <!-- Rounded Square Container with subtle dark border -->
  <rect x="32" y="32" width="448" height="448" rx="100" fill="#0B0B0D" stroke="rgba(255, 255, 255, 0.08)" stroke-width="4"/>
  
  <!-- Top Left Tile (Electric Blue) -->
  <path d="M 112,144 A 32,32 0 0,1 144,112 L 224,112 A 16,16 0 0,1 240,128 L 240,224 A 16,16 0 0,1 224,240 L 144,240 A 32,32 0 0,1 112,208 Z" fill="#4CC9FF"/>
  
  <!-- Top Right Tile (Cyan Accent) -->
  <path d="M 272,128 A 16,16 0 0,1 288,112 L 368,112 A 32,32 0 0,1 400,144 L 400,208 A 32,32 0 0,1 368,240 L 288,240 A 16,16 0 0,1 272,224 Z" fill="#00E5FF"/>
  
  <!-- Bottom Left Tile (Electric Blue) -->
  <path d="M 112,288 A 16,16 0 0,1 128,272 L 224,272 A 16,16 0 0,1 240,288 L 240,310 L 212,310 A 12,12 0 0,0 200,322 L 256,400 L 144,400 A 32,32 0 0,1 112,368 Z" fill="#4CC9FF"/>
  
  <!-- Bottom Right Tile (Highlighted Selection - Warm Orange Accent) -->
  <path d="M 256,400 L 312,322 A 12,12 0 0,0 300,310 L 272,310 L 272,288 A 16,16 0 0,1 288,272 L 384,272 A 16,16 0 0,1 400,288 L 400,368 A 32,32 0 0,1 368,400 Z" fill="#FFB347"/>
</svg>